<?xml version="1.0" standalone="no"?><!DOCTYPE svg PUBLIC "-//W3C//DTD SVG 1.1//EN" "http://www.w3.org/Graphics/SVG/1.1/DTD/svg11.dtd"><svg t="1748531530472" class="icon" viewBox="0 0 1024 1024" version="1.1" xmlns="http://www.w3.org/2000/svg" p-id="20522" xmlns:xlink="http://www.w3.org/1999/xlink" width="200" height="200"><path d="M853.333333 796.444444H170.666667c-34.133333 0-56.888889 22.755556-56.888889 56.888889s22.755556 56.888889 56.888889 56.888889h682.666666c34.133333 0 56.888889-22.755556 56.888889-56.888889s-22.755556-56.888889-56.888889-56.888889zM227.555556 739.555556h170.666666c17.066667 0 28.444444-5.688889 39.822222-17.066667l318.577778-318.577778c34.133333-34.133333 51.2-73.955556 51.2-119.466667s-17.066667-85.333333-51.2-119.466666l-11.377778-11.377778c-34.133333-34.133333-73.955556-51.2-119.466666-51.2s-85.333333 17.066667-119.466667 51.2L187.733333 472.177778c-11.377778 11.377778-17.066667 22.755556-17.066666 39.822222v170.666667c0 34.133333 22.755556 56.888889 56.888889 56.888889z m56.888888-204.8l301.511112-301.511112c11.377778-11.377778 22.755556-17.066667 39.822222-17.066666s28.444444 5.688889 39.822222 17.066666l11.377778 11.377778c11.377778 11.377778 17.066667 22.755556 17.066666 39.822222s-5.688889 28.444444-17.066666 39.822223L375.466667 625.777778H284.444444V534.755556z" fill="#8a8a8a" p-id="20523"></path></svg>