<?xml version="1.0" standalone="no"?><!DOCTYPE svg PUBLIC "-//W3C//DTD SVG 1.1//EN" "http://www.w3.org/Graphics/SVG/1.1/DTD/svg11.dtd"><svg t="1748956344283" class="icon" viewBox="0 0 1024 1024" version="1.1" xmlns="http://www.w3.org/2000/svg" p-id="6033" xmlns:xlink="http://www.w3.org/1999/xlink" width="200" height="200"><path d="M480 586.667c17.673 0 32 14.327 32 32 0 17.673-14.327 32-32 32h-74.667c-80.756 0-146.54 64.102-149.246 144.2L256 800c0 11.782 9.551 21.333 21.333 21.333H480c17.673 0 32 14.327 32 32 0 17.673-14.327 32-32 32H256c-35.346 0-64-28.653-64-64V800c0-117.82 95.513-213.333 213.333-213.333H480z m260.03-19.757a8.534 8.534 0 0 1 3.275 2.646l0.755 1.206c19.76 38.395 38.19 66.207 55.29 83.437 15.796 15.917 40.087 32.236 72.871 48.955l7.717 3.865a8.534 8.534 0 0 1-0.035 15.33l-15.818 7.867-14.573 7.596c-20.925 11.194-37.645 21.479-50.163 30.855-17.21 12.892-34.702 39.473-52.474 79.742l-3.14 7.248a8.533 8.533 0 0 1-15.677 0.067c-18.435-42.35-36.052-71.369-52.85-87.057-15.633-14.6-40.47-29.25-74.51-43.947l-7.436-3.15a8.534 8.534 0 0 1-0.688-15.436l14.725-7.881 6.934-3.83 13.015-7.44c20.74-12.154 36.726-23.082 47.96-32.784 15.935-13.762 32.607-38.965 50.016-75.608l3.49-7.482a8.534 8.534 0 0 1 11.316-4.199zM512 149.333c106.039 0 192 85.962 192 192 0 106.039-85.961 192-192 192s-192-85.961-192-192c0-106.038 85.961-192 192-192z m0 64c-70.692 0-128 57.308-128 128 0 70.693 57.308 128 128 128 70.692 0 128-57.307 128-128 0-70.692-57.308-128-128-128z" p-id="6034" fill="#f4ea2a"></path></svg>