<?xml version="1.0" standalone="no"?><!DOCTYPE svg PUBLIC "-//W3C//DTD SVG 1.1//EN" "http://www.w3.org/Graphics/SVG/1.1/DTD/svg11.dtd"><svg t="1748957413667" class="icon" viewBox="0 0 1024 1024" version="1.1" xmlns="http://www.w3.org/2000/svg" p-id="50298" xmlns:xlink="http://www.w3.org/1999/xlink" width="200" height="200"><path d="M372.3264 737.28H289.792a8.2944 8.2944 0 0 0-8.2944 8.2944v82.5344a8.2944 8.2944 0 0 0 8.2944 8.2944h82.5344a8.192 8.192 0 0 0 8.2944-8.192V745.472a8.192 8.192 0 0 0-8.2944-8.2944z m0-152.8832H289.792a8.2944 8.2944 0 0 0-8.2944 8.2944v82.5344a8.2944 8.2944 0 0 0 8.2944 8.2944h82.5344a8.2944 8.2944 0 0 0 8.2944-8.2944v-82.6368a8.2944 8.2944 0 0 0-8.2944-8.2944z m0-152.8832H289.792a8.192 8.192 0 0 0-8.2944 8.192V522.24a8.2944 8.2944 0 0 0 8.2944 8.2944h82.5344a8.2944 8.2944 0 0 0 8.2944-8.2944v-82.6368a8.192 8.192 0 0 0-8.2944-8.192z m339.1488 528.4864a233.3696 233.3696 0 0 1-42.1888-3.7888h-1.4336a26.7264 26.7264 0 0 1-21.4016-21.4016l-6.9632-37.6832a186.9824 186.9824 0 0 1-43.008-24.9856l-36.1472 12.8a26.7264 26.7264 0 0 1-8.9088 1.536 26.3168 26.3168 0 0 1-20.48-9.4208l-0.9216-1.024a236.3392 236.3392 0 0 1-42.2912-73.3184v-1.4336a27.136 27.136 0 0 1 7.7824-29.184l29.2864-24.9856a180.9408 180.9408 0 0 1-1.7408-24.7808 166.5024 166.5024 0 0 1 1.7408-24.8832l-29.2864-24.9856a26.7264 26.7264 0 0 1-7.7824-29.184l0.6144-1.6384a276.992 276.992 0 0 1 43.1104-74.1376 26.5216 26.5216 0 0 1 29.184-7.8848l36.1472 12.9024a195.072 195.072 0 0 1 43.008-25.088l6.9632-37.6832a26.8288 26.8288 0 0 1 21.4016-21.4016h1.3312a236.7488 236.7488 0 0 1 84.3776 0h1.4336a26.7264 26.7264 0 0 1 21.4016 21.4016l6.9632 37.4784a192 192 0 0 1 43.4176 25.1904l35.84-12.8a26.5216 26.5216 0 0 1 29.184 7.8848l0.9216 1.024a235.52 235.52 0 0 1 42.2912 73.3184v1.3312a26.8288 26.8288 0 0 1-7.7824 29.184l-28.8768 24.6784a184.32 184.32 0 0 1 0 50.4832l28.8768 24.6784a26.7264 26.7264 0 0 1 7.7824 29.184l-1.3312 3.4816a263.8848 263.8848 0 0 1-40.96 71.68l-0.9216 1.1264a26.5216 26.5216 0 0 1-29.184 7.8848l-35.84-12.6976a193.2288 193.2288 0 0 1-43.4176 25.088l-6.9632 37.4784a26.8288 26.8288 0 0 1-21.4016 21.4016h-1.3312a253.3376 253.3376 0 0 1-42.1888 3.6864z m-12.9024-57.6512h25.6l8.704-47.3088 24.8832-9.3184a129.024 129.024 0 0 0 37.376-21.6064l20.48-16.7936 45.1584 15.9744a178.176 178.176 0 0 0 12.8-22.2208l-36.2496-30.72 4.3008-26.112a142.0288 142.0288 0 0 0 1.7408-21.7088 138.9568 138.9568 0 0 0-1.7408-21.7088l-4.1984-26.112 36.352-30.72a198.5536 198.5536 0 0 0-12.8-22.2208l-45.3632 16.0768-20.48-16.896A134.8608 134.8608 0 0 0 757.76 598.528l-24.7808-9.3184-8.704-47.3088h-25.6l-8.704 47.4112-24.3712 9.3184a131.8912 131.8912 0 0 0-37.0688 21.504l-20.48 16.896-45.8752-16.1792a185.856 185.856 0 0 0-12.8 22.2208l36.7616 31.4368-4.1984 26.112a133.12 133.12 0 0 0-1.7408 21.504 141.5168 141.5168 0 0 0 1.7408 21.504l4.1984 26.0096-36.7616 31.4368a189.7472 189.7472 0 0 0 12.8 22.2208l45.4656-16.1792 20.48 16.7936a128.1024 128.1024 0 0 0 37.4784 21.504l24.576 9.5232z m0 0" p-id="50299" fill="#1296db"></path><path d="M711.4752 681.5744a33.1776 33.1776 0 1 1-33.0752 33.1776 33.1776 33.1776 0 0 1 33.0752-33.1776m0-57.9584a91.136 91.136 0 1 0 90.9312 91.136 90.9312 90.9312 0 0 0-90.9312-91.136z m0 0" p-id="50300" fill="#1296db"></path><path d="M451.8912 895.1808H218.2144A13.2096 13.2096 0 0 1 204.8 881.9712V361.8816a13.1072 13.1072 0 0 1 5.2224-10.24l275.2512-210.8416a13.2096 13.2096 0 0 1 16.0768 0L776.192 353.9968a13.0048 13.0048 0 0 1 5.12 10.24V440.32a20.48 20.48 0 0 0 21.504 21.504h28.3648a21.504 21.504 0 0 0 21.504-21.504 13.2096 13.2096 0 0 1 21.2992-10.24l8.3968 6.5536a21.504 21.504 0 0 0 30.1056-3.7888l27.3408-35.328a8.192 8.192 0 0 0-1.4336-11.5712L513.8432 56.4224a33.0752 33.0752 0 0 0-40.3456 0l-430.08 329.216a8.0896 8.0896 0 0 0-1.536 11.5712l27.0336 35.4304a21.504 21.504 0 0 0 30.208 3.9936l13.4144-10.24a13.2096 13.2096 0 0 1 21.1968 10.24v478.4128a46.3872 46.3872 0 0 0 46.2848 46.2848h258.6624a21.6064 21.6064 0 0 0 21.504-21.504v-36.4544a8.2944 8.2944 0 0 0-8.2944-8.192z m0 0" p-id="50301" fill="#1296db"></path></svg>