<?xml version="1.0" standalone="no"?><!DOCTYPE svg PUBLIC "-//W3C//DTD SVG 1.1//EN" "http://www.w3.org/Graphics/SVG/1.1/DTD/svg11.dtd"><svg t="1748956395156" class="icon" viewBox="0 0 1024 1024" version="1.1" xmlns="http://www.w3.org/2000/svg" p-id="8880" xmlns:xlink="http://www.w3.org/1999/xlink" width="200" height="200"><path d="M317.6 246.3c-17.7 0-32 14.3-32 32s14.3 32 32 32h330c17.7 0 32-14.3 32-32s-14.3-32-32-32h-330zM918.8 659.3L800.7 454.7c-11.3-19.6-32.4-31.8-55.1-31.8H509.4c-22.7 0-43.8 12.2-55.1 31.8L336.2 659.3c-11.3 19.6-11.3 44 0 63.6l118.1 204.6c11.3 19.6 32.4 31.8 55.1 31.8h236.2c22.7 0 43.8-12.2 55.1-31.8l118.1-204.6c11.3-19.6 11.3-44 0-63.6z m-173.4 236H509.6L391.7 691.1l117.9-204.2h235.8l117.9 204.2-117.9 204.2z" p-id="8881" fill="#f4ea2a"></path><path d="M173.1 894.8c-6.6 0-12-5.4-12-12V139.9c0-6.6 5.4-12 12-12h619c6.6 0 12 5.4 12 12v215.5c26.2 11.7 48.7 31.1 64 56.2V139.9c0-41.9-34.1-76-76-76h-619c-41.9 0-76 34.1-76 76v742.9c0 41.9 34.1 76 76 76H380l-37-64H173.1z" p-id="8882" fill="#f4ea2a"></path><path d="M637.1 691.8m-32 0a32 32 0 1 0 64 0 32 32 0 1 0-64 0Z" p-id="8883" fill="#f4ea2a"></path></svg>