<?xml version="1.0" standalone="no"?><!DOCTYPE svg PUBLIC "-//W3C//DTD SVG 1.1//EN" "http://www.w3.org/Graphics/SVG/1.1/DTD/svg11.dtd"><svg t="1748957007746" class="icon" viewBox="0 0 1024 1024" version="1.1" xmlns="http://www.w3.org/2000/svg" p-id="22632" xmlns:xlink="http://www.w3.org/1999/xlink" width="200" height="200"><path d="M819.2 166.4c-34.133333-34.133333-85.333333-34.133333-119.466667 0l-25.6 25.6H349.866667l-25.6-25.6c-34.133333-34.133333-85.333333-34.133333-119.466667 0L85.333333 285.866667c-34.133333 34.133333-34.133333 85.333333 0 119.466666L145.066667 469.333333c17.066667 17.066667 42.666667 25.6 68.266666 25.6v209.066667c0 93.866667 76.8 170.666667 170.666667 170.666667h256c93.866667 0 170.666667-76.8 170.666667-170.666667v-209.066667c25.6 4.266667 51.2-4.266667 68.266666-25.6L938.666667 409.6c34.133333-34.133333 34.133333-85.333333 0-119.466667l-119.466667-123.733333zM896 362.666667l-59.733333 59.733333c-4.266667 4.266667-12.8 8.533333-17.066667 4.266667l-72.533333-8.533334V699.733333c0 59.733333-46.933333 106.666667-106.666667 106.666667H384c-59.733333 0-106.666667-46.933333-106.666667-106.666667V422.4l-68.266666 8.533333c-4.266667 0-12.8 0-17.066667-4.266666L128 362.666667c-4.266667-8.533333-4.266667-21.333333 0-29.866667L251.733333 213.333333c8.533333-8.533333 21.333333-8.533333 29.866667 0l25.6 25.6 17.066667 17.066667H699.733333l17.066667-17.066667 29.866667-25.6c8.533333-8.533333 21.333333-8.533333 29.866666 0L896 332.8c8.533333 8.533333 8.533333 21.333333 0 29.866667z" fill="#1296db" p-id="22633"></path><path d="M640 712.533333H384c-17.066667 0-34.133333-12.8-34.133333-34.133333 0-17.066667 12.8-34.133333 34.133333-34.133333h256c17.066667 0 34.133333 12.8 34.133333 34.133333s-17.066667 34.133333-34.133333 34.133333z" fill="#1296db" p-id="22634"></path></svg>