<?xml version="1.0" standalone="no"?><!DOCTYPE svg PUBLIC "-//W3C//DTD SVG 1.1//EN" "http://www.w3.org/Graphics/SVG/1.1/DTD/svg11.dtd"><svg t="1748957345525" class="icon" viewBox="0 0 1024 1024" version="1.1" xmlns="http://www.w3.org/2000/svg" p-id="47474" xmlns:xlink="http://www.w3.org/1999/xlink" width="200" height="200"><path d="M124.595415 525.618339c-5.899783 0-11.899562-2.299915-16.2994-6.899746-13.699496-13.899489-26.699018-28.698944-38.798572-43.998381-64.297634-87.396784-116.195724-221.791839-1.799934-369.386408C120.195577 37.736291 188.193075 2.637583 269.59008 0.837649c62.797689-1.599941 113.895809 18.699312 123.995437 24.19911 18.799308 10.199625 68.597476 49.798168 115.895736 92.096611 59.297818 53.098046 105.596114 101.996247 126.995327 134.295058 17.899341 26.999007 13.799492 62.797689-10.399618 90.996652-26.399029 30.498878-59.7978 34.898716-81.297008 25.699054-38.698576-16.599389-84.396894-51.09812-139.394871-105.396122L140.594827 519.218574c-4.499834 4.299842-10.199625 6.399765-15.999412 6.399765zM276.189837 46.535968c-1.799934 0-3.699864 0-5.499798 0.099996-66.997535 1.499945-123.09547 30.69887-166.793862 86.796806-77.797137 100.296309-77.097163 205.892424 1.999926 313.588461 6.099776 7.699717 12.699533 15.399433 19.599279 23.09915l264.290275-255.99058c9.099665-8.69968 23.499135-8.599684 32.298812 0.399985 57.097899 58.397851 104.496155 95.896471 140.694822 111.395901 4.799823 2.099923 16.799382 0.199993 28.598948-13.499503 3.999853-4.699827 16.499393-21.19922 6.899746-35.798683-19.29929-29.098929-62.797689-74.897244-119.29561-125.395386-51.498105-46.098304-95.296493-79.497075-107.196056-85.896839-5.999779-3.299879-45.498326-18.799308-95.596482-18.799308z" fill="#1296db" p-id="47475"></path><path d="M530.280487 873.005556c-12.099555 0-24.599095-1.799934-37.098635-5.499798-31.998823-9.299658-54.397998-27.198999-56.897906-29.298921l-1.199956-0.999964-19.499282-18.399323-32.098819-31.598837-56.097936-52.298075-31.998822-32.498805c-22.899157-20.299253-46.098304-42.898421-66.59755-62.897685l-31.898826-31.298848c-10.999595-10.799603-29.098929-30.298885-46.698282-49.19819-13.899489-14.899452-27.198999-29.198926-35.59869-37.698613-8.899673-8.999669-8.799676-23.499135 0.199993-32.398808 8.999669-8.899673 23.499135-8.799676 32.398808 0.199993 8.599684 8.69968 22.299179 23.399139 36.498657 38.698576 17.199367 18.499319 34.998712 37.598616 45.298333 47.698245l31.79883 31.198852c20.09926 19.599279 42.998418 41.798462 66.197564 62.4977l32.298811 32.798793 55.797947 51.998087 50.698135 49.098193c2.899893 2.299915 18.699312 14.099481 40.098524 20.299253 28.198962 8.199698 53.098046 2.699901 75.997204-16.699385 79.197086-67.39752 331.587799-361.286706 360.08675-394.585481 5.499798-6.499761 16.699386-24.599095 25.399065-53.298039 9.299658-30.898863 12.599536-62.897686 9.599647-95.0965-6.199772-63.297671-37.698613-118.295647-93.696552-163.193995-30.998859-24.799087-62.297708-41.398477-93.096575-49.398183-22.899157-5.999779-46.298296-7.099739-69.597439-3.199882-22.199183 3.499871-42.598433 11.799566-60.997755 24.599095-10.399617 7.199735-24.699091 4.699827-31.898827-5.69979-7.199735-10.399617-4.699827-24.599095 5.699791-31.898827 24.099113-16.799382 50.898127-27.598984 79.797063-32.198815C742.872665-1.962248 772.671568-0.662296 801.870494 7.037421c36.998639 9.599647 74.097273 29.098929 110.195945 57.997866 65.997571 52.898054 103.296199 118.395643 110.695927 194.592839 3.499871 38.198594-0.399985 75.997204-11.399581 112.595857-10.199625 33.498767-23.999117 57.497884-33.598764 68.797469-47.798241 55.797947-285.989476 332.487765-366.186525 400.785252-24.499099 20.699238-52.098083 31.198852-81.297009 31.198852z" fill="#1296db" p-id="47476"></path><path d="M230.091533 619.814873c-6.099776 0-12.199551-2.399912-16.699385-7.199735-8.599684-9.199661-8.199698-23.699128 0.999963-32.398808l244.191015-228.991574c9.199661-8.599684 23.699128-8.199698 32.398807 0.999963 8.599684 9.199661 8.199698 23.699128-0.999963 32.398808l-244.191014 228.991574c-4.399838 4.099849-9.999632 6.199772-15.699423 6.199772zM321.688163 696.112065c-6.099776 0-12.199551-2.399912-16.699386-7.199735-8.599684-9.199661-8.199698-23.699128 0.999964-32.398808l244.191014-228.991573c9.199661-8.599684 23.699128-8.199698 32.398808 0.999963 8.599684 9.199661 8.199698 23.699128-0.999963 32.398808l-244.191015 228.991573c-4.399838 4.099849-10.099628 6.199772-15.699422 6.199772zM413.284792 772.409258c-6.099776 0-12.199551-2.399912-16.699385-7.199735-8.599684-9.199661-8.199698-23.699128 0.999963-32.398808l244.191015-228.991574c9.199661-8.599684 23.699128-8.199698 32.398807 0.999963 8.599684 9.199661 8.199698 23.699128-0.999963 32.398808L428.984215 766.209486c-4.499834 4.199845-10.099628 6.199772-15.699423 6.199772z" fill="#1296db" p-id="47477"></path></svg>