<?xml version="1.0" standalone="no"?><!DOCTYPE svg PUBLIC "-//W3C//DTD SVG 1.1//EN" "http://www.w3.org/Graphics/SVG/1.1/DTD/svg11.dtd"><svg t="1748957291905" class="icon" viewBox="0 0 1024 1024" version="1.1" xmlns="http://www.w3.org/2000/svg" p-id="43605" xmlns:xlink="http://www.w3.org/1999/xlink" width="200" height="200"><path d="M464.64 43.946667c51.797333-12.629333 131.797333 72.149333 146.346667 154.325333 6.357333 35.84 4.053333 69.546667-4.096 113.024l-1.621334 8.234667 1.28-0.597334c12.714667-7.04 25.728-18.773333 36.48-35.626666l4.437334-7.552a31.658667 31.658667 0 0 0 1.92-4.522667l2.133333-7.082667 3.2-13.525333 2.048-9.6 3.328-14.421333c3.712-14.933333 7.253333-23.68 13.653333-32.384 18.944-25.514667 48.938667-22.912 71.850667-0.170667l5.589333 5.546667c89.173333 90.453333 149.632 211.925333 149.632 392.533333 0 241.536-271.36 416.426667-516.266666 351.274667C126.122667 874.709333 30.037333 506.453333 251.221333 313.386667l13.738667-12.117334c67.072-59.946667 110.933333-110.165333 137.088-152.618666 9.984-16.213333 16.810667-30.336 21.76-43.776l2.261333-6.741334 6.357334-20.864 2.133333-5.973333c4.864-12.202667 11.904-20.778667 25.173333-25.856z m23.381333 70.4l-4.138666 12.586666c-6.4 17.408-15.104 35.413333-27.306667 55.253334-31.616 51.285333-83.84 110.08-163.285333 179.456-181.76 158.634667-102.101333 464.170667 107.690666 519.936 206.634667 54.912 435.84-92.757333 435.84-289.450667 0-150.698667-45.866667-253.269333-115.242666-330.666667l-3.072-3.285333-3.541334 16.128c-3.2 13.354667-6.528 23.338667-11.306666 32.128-32.341333 59.221333-87.125333 87.509333-131.968 84.266667-30.592-2.261333-37.461333-24.064-34.901334-50.261334a218.453333 218.453333 0 0 1 3.072-19.541333l6.229334-33.28c5.12-30.634667 6.058667-54.613333 1.877333-78.165333-5.12-28.842667-21.162667-57.685333-42.709333-79.957334a139.562667 139.562667 0 0 0-15.829334-14.165333l-1.408-0.938667z m41.856 378.624c48.042667 0 81.152 34.56 81.152 93.44 0 58.794667-33.109333 94.848-81.152 94.848s-81.109333-36.053333-81.109333-94.890667c0-59.050667 33.066667-93.397333 81.109333-93.397333z m-134.698666 3.413333c9.984 0 18.048 8.106667 18.048 18.048v145.365333a18.005333 18.005333 0 0 1-36.053334 0v-60.416H308.522667v60.288a18.133333 18.133333 0 0 1-36.266667 0V514.56a18.133333 18.133333 0 0 1 36.266667 0v53.205333H377.173333v-53.333333c0-9.941333 8.106667-18.005333 18.005334-18.005333z m352.512 0a15.061333 15.061333 0 0 1 0 30.208h-36.437334v133.077333a18.133333 18.133333 0 0 1-36.266666 0v-133.12h-35.882667a15.061333 15.061333 0 0 1 0-30.122666z m-217.813334 27.733333c-26.965333 0-44.117333 23.296-44.117333 62.293334 0 38.698667 17.152 63.445333 44.117333 63.445333s44.117333-24.746667 44.117334-63.488c0-38.954667-17.152-62.250667-44.117334-62.250667z" fill="#1296db" p-id="43606"></path></svg>