<?xml version="1.0" standalone="no"?><!DOCTYPE svg PUBLIC "-//W3C//DTD SVG 1.1//EN" "http://www.w3.org/Graphics/SVG/1.1/DTD/svg11.dtd"><svg t="1748957505347" class="icon" viewBox="0 0 1140 1024" version="1.1" xmlns="http://www.w3.org/2000/svg" p-id="55555" xmlns:xlink="http://www.w3.org/1999/xlink" width="222.65625" height="200"><path d="M1094.391938 455.15206H217.993882a46.252294 46.252294 0 0 0-46.068023 46.068023v92.136044a46.252294 46.252294 0 0 0 46.068023 46.068023h23.034011v292.255533a92.136045 92.136045 0 0 0 92.136044 92.136045h644.952313a92.136045 92.136045 0 0 0 92.136044-92.136045V639.608422h24.139644a46.252294 46.252294 0 0 0 46.068022-46.068023v-92.136044a46.252294 46.252294 0 0 0-46.068022-46.068022z" fill="#1296db" opacity=".12" p-id="55556"></path><path d="M255.953932 260.929278l175.611301-46.989382a32.855714 32.855714 0 1 0-17.321576-63.389599l-176.716934 46.989383a33.003131 33.003131 0 1 0 18.427209 63.389598zM284.147562 368.544179l175.427029-46.989383a32.94785 32.94785 0 0 0-17.321577-63.573871l-175.427029 46.989383a32.94785 32.94785 0 1 0 17.321577 63.573871z" fill="#1296db" p-id="55557"></path><path d="M178.375382 354.908044L128.437646 167.871873l365.780097-98.032751 75.920101 285.068922h68.180673L553.553356 36.854418A50.859097 50.859097 0 0 0 492.559295 1.474177L94.715854 108.536261a49.200648 49.200648 0 0 0-34.643153 60.256973l49.753464 186.11481z" fill="#1296db" p-id="55558"></path><path d="M730.27029 332.611121L750.355947 257.980925l63.389599 17.321576-15.478855 57.677164h68.364945l27.825085-104.666546 17.321577-63.389599 32.063343 8.292244-24.508188 95.084398a32.855714 32.855714 0 0 0 63.389599 17.321576l33.721792-127.700558a32.247616 32.247616 0 0 0-23.771099-39.434227l-63.573871-17.321576a65.785136 65.785136 0 0 0-46.805111-80.711175L818.720893 3.132626a65.969408 65.969408 0 0 0-80.711176 46.989382l-33.721792 127.700558-42.935397 154.788555z m70.391938-266.088897l63.389599 17.321577-33.906065 127.700557-63.389599-17.321576z" fill="#1296db" p-id="55559"></path><path d="M989.172575 332.611121h-939.787655a49.569192 49.569192 0 0 0-49.38492 49.38492v98.954112a49.569192 49.569192 0 0 0 49.38492 49.38492h25.61382v313.262552a99.138384 99.138384 0 0 0 98.76984 98.954112h691.941695a99.138384 99.138384 0 0 0 98.76984-98.954112v-313.262552h24.69246a49.569192 49.569192 0 0 0 49.38492-49.38492v-98.954112a49.569192 49.569192 0 0 0-49.38492-49.38492zM898.510707 737.088357H700.971028v-66.706496h197.539679V737.088357z m0-131.754544H684.386539a49.569192 49.569192 0 0 0-49.384919 49.38492v98.954112a49.569192 49.569192 0 0 0 49.384919 49.38492h214.124168v41.092676a32.984704 32.984704 0 0 1-32.800432 32.984704H173.76858a32.984704 32.984704 0 0 1-32.984704-32.984704v-313.262552h757.726831z m73.708836-140.046788H66.706496v-66.706496h906.065863z" fill="#1296db" p-id="55560"></path></svg>