<?xml version="1.0" standalone="no"?><!DOCTYPE svg PUBLIC "-//W3C//DTD SVG 1.1//EN" "http://www.w3.org/Graphics/SVG/1.1/DTD/svg11.dtd"><svg t="1748957442477" class="icon" viewBox="0 0 1024 1024" version="1.1" xmlns="http://www.w3.org/2000/svg" p-id="52247" xmlns:xlink="http://www.w3.org/1999/xlink" width="200" height="200"><path d="M976.723 226.356a39.07 39.07 0 0 0-15.504-29.767c-31.628-27.907-85.581-75.04-102.326-91.163a32.248 32.248 0 0 0-44.65 0 28.527 28.527 0 0 0 0 41.55c14.263 13.023 46.51 39.69 62.015 62.016-15.504 18.604-40.31 37.83-55.814 54.573a7.442 7.442 0 0 0 0 5.582v20.465c0 3.72 4.34 4.961 6.201 4.961h79.38a6.822 6.822 0 0 1 6.822 5.582V802.48c0 27.907-15.504 36.59-31.628 36.59a32.248 32.248 0 0 1-32.868-36.59V391.318c0-37.21-4.341-53.954-47.132-56.435H728.66V72.557a62.016 62.016 0 0 0-62.016-62.015H170.52a62.016 62.016 0 0 0-62.016 62.015V912.25H72.535a26.047 26.047 0 0 0-26.046 28.527v37.83a27.287 27.287 0 0 0 26.046 24.186H764.01a27.287 27.287 0 0 0 26.047-26.667v-35.349a26.047 26.047 0 0 0-26.047-25.426h-35.348V395.039h44.03a16.744 16.744 0 0 1 16.745 15.503v395.04A91.783 91.783 0 0 0 883.7 907.288a88.062 88.062 0 0 0 93.023-100.466V226.356m-362.171 156.28a42.17 42.17 0 0 1-42.791 41.55H261.683a42.17 42.17 0 0 1-40.31-41.55V164.34a42.17 42.17 0 0 1 42.17-41.55h310.079a42.17 42.17 0 0 1 42.79 41.55v218.295" fill="#1296db" p-id="52248"></path></svg>