<?xml version="1.0" standalone="no"?><!DOCTYPE svg PUBLIC "-//W3C//DTD SVG 1.1//EN" "http://www.w3.org/Graphics/SVG/1.1/DTD/svg11.dtd"><svg t="1748506816880" class="icon" viewBox="0 0 1024 1024" version="1.1" xmlns="http://www.w3.org/2000/svg" p-id="12254" xmlns:xlink="http://www.w3.org/1999/xlink" width="200" height="200"><path d="M564.8 992c-264 0-480-216-480-480s216-480 480-480c144 0 278.4 64 369.6 172.8l4.8 6.4L681.6 512l248 312-4.8 6.4C832 932.8 702.4 992 564.8 992z m0-939.2C310.4 52.8 104 257.6 104 512c0 254.4 206.4 459.2 459.2 459.2 128 0 251.2-54.4 337.6-148.8L654.4 512 912 212.8c-86.4-102.4-212.8-160-347.2-160z" fill="#231815" p-id="12255"></path><path d="M624 254.4m-83.2 0a83.2 83.2 0 1 0 166.4 0 83.2 83.2 0 1 0-166.4 0Z" fill="#231815" p-id="12256"></path></svg>