<?xml version="1.0" standalone="no"?><!DOCTYPE svg PUBLIC "-//W3C//DTD SVG 1.1//EN" "http://www.w3.org/Graphics/SVG/1.1/DTD/svg11.dtd"><svg t="1748506941573" class="icon" viewBox="0 0 1132 1024" version="1.1" xmlns="http://www.w3.org/2000/svg" p-id="17141" xmlns:xlink="http://www.w3.org/1999/xlink" width="221.09375" height="200"><path d="M761.172187 1000.313055l-0.009049 0.06787c0.456997-2.208067 11.976952-53.984517 83.485736-54.862314a11.221323 11.221323 0 0 0 11.072007-11.352539 11.221323 11.221323 0 0 0-11.357065-11.067482c-90.22758 1.113083-105.068684 72.223691-105.20895 72.943122a11.203224 11.203224 0 0 0 8.872989 13.135283 11.207749 11.207749 0 0 0 13.144332-8.86394z" fill="#DFA000" p-id="17142"></path><path d="M793.831666 940.586659l-25.781894-42.541482a11.203224 11.203224 0 1 0-19.166743 11.619498l25.786418 42.536958c3.208031 5.298455 10.094666 6.981654 15.388597 3.773622s6.990703-10.094666 3.773622-15.388596z" fill="#DFA000" p-id="17143"></path><path d="M909.071936 235.009792c56.631482-41.849199 54.694899-113.977871-87.390576-76.6353-233.833363 61.454841-211.223302 56.527413-225.195659 142.15787-9.194245 56.409771 59.14723 142.592244 262.026936 81.467709 96.367634 2.542897-131.343773-12.619463 50.559299-146.990279z" fill="#8383A3" p-id="17144"></path><path d="M915.727809 244.023048c32.523737-24.030825 46.776627-56.047792 35.46481-79.666867-8.198805-17.117042-36.292835-42.070911-132.366361-16.822935-212.042278 55.731062-220.313479 57.907455-230.380997 130.714836-0.850649 6.108381-1.800841 13.026689-3.022517 20.483439-4.606172 28.234296 7.271236 57.91198 31.768108 79.386334 27.994485 24.546644 96.982997 59.083884 244.56149 14.610343l-3.524762 0.470572c24.885998 0.66061 33.274842 0.877797 35.976103-9.36166 2.524798-9.547174-5.651384-13.909011-12.863798-17.764078-11.384213-6.072184-32.546361-17.370427-33.926403-36.247587-1.117608-15.289052 9.827707-42.591255 68.314327-85.802397z m-60.441302 127.24437c-137.225918 41.34243-198.811976 11.479232-223.313373-10.004171-18.6464-16.347838-27.772774-38.374209-24.415426-58.920994 1.262399-7.728234 2.235215-14.795857 3.099438-21.021881 8.013291-57.993425 8.013291-57.993425 213.879317-112.095585 68.187635-17.922443 99.693308-9.262116 106.444201 4.818834 6.2215 12.990491-6.063134 35.329068-28.560076 51.952915-54.314822 40.116229-79.617095 74.617272-77.359257 105.475909 2.284987 31.202517 31.623316 46.867121 45.726891 54.391742 1.873237 1.004489 4.203471 2.244265 4.859556 2.719361-1.547457-1.104033-4.348263-5.017922-3.208031-10.085616 1.140231-5.049595 5.325604-7.37078 7.167167-7.701085-2.714836 0.484146-16.311641 0.126692-20.786595 0.013574l-1.800841-0.054297-1.732971 0.511294z" fill="#6E6E96" p-id="17145"></path><path d="M222.272685 282.664216c11.18965 35.283821 64.703595 34.170738 154.777334-5.995263 90.88819-40.496306 168.722542-92.689031 157.528368-127.986426-11.203224-35.283821-89.336208-16.497154-182.215278 17.714306-92.888119 34.193361-141.284598 80.965464-130.090424 116.267383z" p-id="17146"></path><path d="M222.272685 282.664216c11.18965 35.283821 64.703595 34.170738 154.777334-5.995263 90.88819-40.496306 168.722542-92.689031 157.528368-127.986426-11.203224-35.283821-89.336208-16.497154-182.215278 17.714306-92.888119 34.193361-141.284598 80.965464-130.090424 116.267383z" fill="#FFFFFF" opacity=".43" p-id="17147"></path><path d="M702.409558 190.80321c-3.80982 1.004489-7.53367 1.98183-11.207748 2.941072-9.384284-33.374386-23.573827-63.785075-48.075224-83.589805-41.021174-33.148149-132.131076-44.894341-207.218919-53.921171-42.107109-12.465623-118.905299-20.569409-206.721199-26.487751C95.747746 20.763972 14.017604 34.912793 13.474637 61.631305c-0.402701 20.162183 38.876454 34.935417 115.095479 42.754145-21.474354 11.004136-33.175298 24.333981-30.112058 37.577857 3.38902 14.646541 24.175616 26.193644 54.400792 32.668529-9.049454 10.343526-12.705433 20.926862-9.483828 30.790766 6.149104 18.791191 35.763442 30.636926 76.110432 33.464881 2.203542 1.357418 4.47043 2.723886 6.78709 4.081303-7.682986 12.614939-9.796034 25.057938-5.04507 36.166143 9.967973 23.302344 47.645375 34.971614 95.84729 33.220545 216.625826 64.884584 35.577928 341.598784 187.767118 234.923822 54.703949-38.347061 169.184064-104.38545 227.172965-133.067694 2.447877 0.08597 4.868606 0.16289 7.235038 0.226236 35.514582 0.936618 27.00357-0.542967 11.212273-9.492877 38.505426-19.727809 53.265085-30.627877 13.117184-25.166531-22.668882 3.081339-34.831348-12.556117-42.907986-37.994132 7.633214-19.420128 27.772774-43.794832 69.124254-74.345788 56.636007-41.844675 54.703949-113.982396-87.386052-76.6353z" fill="#8383A3" p-id="17148"></path><path d="M699.554456 179.961964l-7.289335 1.918484-3.90484 1.031638a11.221323 11.221323 0 0 1 13.646577 7.805154c-11.605925-41.270034-28.560076-70.463572-51.821698-89.268338-41.25646-33.338188-122.416487-54.808017-211.083035-65.472798 0.624412 0.07692 1.239775 0.199088 1.841563 0.380077-53.961893-8.578882-106.584467-10.759801-211.00159-17.791226-53.93927-3.628831-183.179045-8.619605-218.195907 23.451659C4.090353 49.029941 2.366432 56.427869 2.262363 61.39602c-0.561066 28.121178 39.211284 45.32419 125.158472 54.142882a11.216798 11.216798 0 0 1-3.968186-21.130475c-36.953445 18.931457-38.369684 39.496341-35.921807 50.070628 4.398035 19.003853 26.175545 33.21602 62.97515 41.098095a11.207749 11.207749 0 0 1-6.094807-18.343243c-15.230231 17.411149-14.768709 32.261303-11.700944 41.650112 7.587967 23.19375 38.125349 37.804093 85.983385 41.165965a11.194174 11.194174 0 0 1-5.099367-1.642476c2.334759 1.438863 4.687617 2.859627 6.999753 4.217046a11.216798 11.216798 0 0 1-3.900315-15.501715c-12.442999 20.433667-10.008696 36.510022-5.778076 46.4056 11.578776 27.062392 51.414472 42.021139 106.561844 40.01216a11.153452 11.153452 0 0 1-3.624307-0.470572c109.819647 32.899289 110.009686 122.154053 110.149953 187.32822 0.07692 34.858496 0.131217 60.047651 18.080809 69.359539 14.655591 7.606066 34.700131 0.850649 69.187599-23.324968 55.219767-38.699989 168.632048-103.964651 225.706953-132.198946a11.357065 11.357065 0 0 1-5.361801 1.15833l7.316483 0.226236c24.895048 0.66061 33.274842 0.877797 35.985153-9.370709 2.520273-9.547174-5.664958-13.913535-12.886422-17.773128-1.81894-0.972816-3.88674-2.07685-6.063134-3.298525 3.588108 2.031602 5.759977 5.868571 5.683057 9.990597s-2.425254 7.859451-6.099332 9.741737c33.274842-17.053696 46.432748-25.243452 42.482661-37.844816-4.013433-12.75068-20.999258-10.447594-35.980628-8.402418-10.501891 1.425289-21.501502-1.248825-30.713847-30.279473a11.198699 11.198699 0 0 1-0.24886 7.488423c7.764431-19.773057 29.745555-43.125172 65.341582-69.42741 32.523737-24.030825 46.776627-56.052317 35.46481-79.675916-8.180706-17.107993-36.27926-42.052812-132.343738-16.804836z m83.576231 78.458765c-39.586836 29.247835-63.436671 55.169995-72.893351 79.264166a11.176076 11.176076 0 0 0-0.253385 7.488423c4.004383 12.614939 16.189473 50.998197 55.10665 45.713316 13.397716-1.81894 16.850083-1.226201 17.193962-1.153805-1.280498-0.271484-4.321114-2.040652-5.565414-5.773552-1.248825-3.741949 0.122168-6.986178 0.990915-7.972568-1.144756 1.312171-6.592527 5.782601-32.351798 18.981229a11.207749 11.207749 0 0 0-0.416274 19.727809c2.416204 1.375517 4.619746 2.542897 6.556329 3.579059 1.877762 1.009014 4.217045 2.253314 4.868606 2.728411-1.533882-1.104033-4.343738-5.013397-3.198982-10.085617 1.140231-5.049595 5.321079-7.366255 7.162643-7.692035-2.719361 0.479621-16.307116 0.122168-20.782071 0.009049l-7.135494-0.226236a11.357065 11.357065 0 0 0-5.361802 1.15833c-57.780763 28.569126-172.640956 94.693485-228.638976 133.940966-35.61865 24.962918-44.564035 22.524091-45.993849 21.777511-5.88667-3.058715-5.940966-29.899396-5.986214-49.505037-0.140267-63.993213-0.375552-171.088975-126.135812-208.757326a11.424935 11.424935 0 0 0-3.624307-0.470572c-44.161335 1.610803-77.576443-8.759871-85.128212-26.419881-3.144685-7.348157-1.692248-16.07183 4.312065-25.93121a11.207749 11.207749 0 0 0-3.900315-15.501714 377.891619 377.891619 0 0 1-6.574428-3.954611 11.076532 11.076532 0 0 0-5.099367-1.633427c-43.672664-3.067765-62.975149-15.795822-66.242003-25.76832-1.832514-5.610661 0.615363-12.316307 7.266712-19.922372a11.207749 11.207749 0 0 0-6.094807-18.343243c-31.23419-6.692071-44.211107-17.23921-45.826435-24.229913-1.606278-6.963555 7.70561-16.560501 24.302309-25.071512a11.207749 11.207749 0 0 0-3.963661-21.12595C25.474213 82.540069 24.677861 62.061155 24.682385 61.853017c0.022624-1.131182 1.393616-2.551946 2.208067-3.303051 14.632967-13.402241 76.196401-26.057902 201.549436-17.619286 101.317685 6.827813 168.138853 15.347874 204.286896 26.048853 0.606313 0.180989 1.221676 0.307681 1.846089 0.380077 64.45021 7.750857 161.854007 19.4699 201.508713 51.514016 19.524197 15.782248 34.030471 41.26551 44.333275 77.911273a11.212273 11.212273 0 0 0 13.646576 7.805154l3.900315-1.031638 7.298384-1.918484c68.18311-17.922443 99.679734-9.262116 106.426102 4.818834 6.230549 12.995016-6.04956 35.333593-28.555551 51.961964z" fill="#6E6E96" p-id="17149"></path><path d="M709.024709 296.247446c0-42.962282 82.603415-68.640107 81.227898-80.431546-1.380042-33.985224-91.865531 5.266782-95.046414-6.845912-11.642122-44.32875-31.700237-72.32776-81.083106-106.923822-35.519106-24.876949-114.362473-33.686592-179.355651-40.464633-36.446675-9.352611-102.919439-15.429319-178.921277-19.8726-115.507229-6.741843-186.251334 3.877691-186.717381 23.922231-0.352929 15.135212 33.650394 26.211743 99.616388 32.089363-18.592103 8.257627-28.713917 18.257273-26.066952 28.193574 2.932023 10.990562 20.926862 19.655414 47.088833 24.519495-7.827778 7.759907-10.999611 15.700802-8.207854 23.094206 5.321079 14.099049 30.953657 22.985613 65.884548 25.10771 1.90491 1.031638 3.864117 2.045177 5.873096 3.067765-6.655873 9.470253-8.479338 18.80024-4.366362 27.143837 8.62413 17.47902 41.238361 26.243416 82.960869 24.922196 256.565591 0 51.921241 275.587543 183.649616 195.531549C604.883594 395.02676 709.024709 370.457492 709.024709 296.247446z" fill="#8D8DB0" p-id="17150"></path><path d="M928.419668 399.365973c-13.886387-3.864117-38.025805 4.936477-49.002792 18.397539-5.045071 6.216975-0.945668 13.044788-3.117537 20.732299-2.542897 9.094701-5.289406 18.890735-3.253279 28.030683 2.049701 9.148998 8.87299 17.64191 9.316413 25.057938 0.601789 10.049419-4.275867 22.424547 0.434374 33.967125 2.846053 6.972604 13.067411 11.031284 16.506204 18.478985 1.882286 4.054155-3.746474 12.320831-0.99544 15.212132 9.425006 9.918201 22.528615 13.628478 31.532822 13.289123 1.601753-1.999929 3.189932-4.008908 4.809784-6.05861 33.758988-42.831065 110.045884 16.117077 132.085829 1.488636 5.348227-81.218848-61.957086-148.144084-138.316378-168.59585z" p-id="17151"></path><path d="M1010.258404 424.01216c-30.772668-23.840786-70.549542-40.523454-114.109088-48.29241-14.433879 3.040616-30.071335 11.262045-38.795009 21.967549-6.081233 7.474849-1.140231 15.709852-3.764572 24.981017-3.076814 10.945314-6.366291 22.754852-3.913889 33.781612 2.475026 11.01771 10.68288 21.252642 11.221323 30.188978 0.728481 12.09912-5.158189 27.021669 0.520343 40.92163 3.429743 8.406943 15.741525 13.293648 19.8907 22.270706 2.262363 4.873131-4.524727 14.832055-1.212627 18.320619 11.366114 11.967903 27.157411 16.438333 37.998657 16.013009 1.927534-2.407155 3.855067-4.814309 5.796175-7.289335a49.667927 49.667927 0 0 1 10.180635-9.691965c0.185514-0.244335 0.371028-0.470572 0.565591-0.710383 38.912652-49.355721 134.348192 36.53717 138.090141-10.904591 2.524798-32.111987-5.307505-61.110962-20.79112-86.114603-11.465658-16.863657-25.623529-32.148185-41.67726-45.441833z" opacity=".31" p-id="17152"></path><path d="M856.490084 371.199548c-10.587861 4.836933-20.347697 11.624023-26.849729 19.601117-7.158118 8.800594-1.334794 18.488034-4.429708 29.401675-3.628831 12.890947-7.492948 26.790908-4.615221 39.754251 2.909399 12.972392 12.574216 25.017215 13.212202 35.537205 0.850649 14.234791-6.081233 31.795256 0.624413 48.170243 4.027007 9.900103 18.519707 15.641981 23.410937 26.225317 2.665064 5.732829-5.325604 17.442822-1.41624 21.560324 12.34798 12.995016 29.084945 18.415639 41.622963 18.795716 11.823111-13.135282 23.849836-27.58726 36.605041-43.772209 38.912652-49.364771 134.357241 36.532645 138.094666-10.904591 8.325498-106.0415-96.240942-178.170172-216.259324-184.369048z" opacity=".31" p-id="17153"></path><path d="M386.07685 809.129768c3.379971 44.564035 114.398671 48.201916 193.472798 25.637103 0.140267 0.17194 0.244335 0.371028 0.41175 0.515818 61.853017 52.69497 63.047545 46.993814 98.729542 65.889074 32.283927 14.859203 62.233094 17.818375 90.39047 2.683163 45.830959-24.68691-39.120789-158.143731 30.97628-209.060483a83.707448 83.707448 0 0 0 7.687511-6.253173c47.907809-31.315635 83.123758-66.504436 126.914066-122.068083 38.908127-49.355721 134.352717 36.53717 138.090141-10.904591 11.547103-146.868111-193.477323-246.086323-356.195553-160.374422l-507.760331 293.654778C84.055852 756.986815 20.700626 797.935593 37.939835 826.595214c0 0 35.247623 51.459719 160.080314-12.452049-0.004525 0.004525-16.207572 77.332108 188.056701-5.013397l177.174732-83.101135" fill="#8D8DB0" p-id="17154"></path><path d="M374.896249 809.980416c0.633462 8.352646 4.407084 20.411043 18.804766 30.446888 37.636679 26.225317 125.610944 23.2028 188.916398 5.13104a11.243946 11.243946 0 0 1-11.832161-3.778147 12.166991 12.166991 0 0 0 1.805366 1.959207c49.753897 42.387642 61.916363 48.238114 82.055923 57.939128 5.30298 2.547421 11.320867 5.443246 18.791191 9.402383l0.561066 0.280533c37.998657 17.492594 70.830075 18.266323 100.385592 2.361907 27.401746-14.75061 21.130475-52.310368 14.483651-92.073668-7.316483-43.840079-15.614833-93.53063 17.773127-117.787691a93.729718 93.729718 0 0 0 8.723673-7.094772 11.411361 11.411361 0 0 1-1.488635 1.16738c46.690657-30.523808 83.033264-65.432076 129.588179-124.511436 14.628442-18.569479 41.546043-11.682845 75.214536-0.760154 22.153063 7.194316 41.297183 13.406766 54.378168 4.660469 6.465835-4.321114 10.117289-11.34349 10.868394-20.868041 4.904804-62.45933-26.605394-120.87808-86.453957-160.283927-82.843225-54.541058-195.155997-58.816925-286.139206-10.895542-0.389127 0.212662-508.144933 293.871964-508.144933 293.871964-111.299233 60.789706-169.496271 97.521439-178.075153 129.162855-2.284987 8.434091-1.16738 16.759589 3.226131 24.067023 0.108593 0.190039 0.230761 0.371028 0.357453 0.556541 1.6651 2.429778 42.33787 58.816925 174.437273-8.805118a11.198699 11.198699 0 0 1-16.076355-12.280109c-1.561031 7.452225-0.678709 23.03086 12.542543 34.098342 27.365548 22.908692 89.738909 14.270989 190.676517-26.424405 0.194563-0.07692 0.384602-0.153841 0.570116-0.24886l177.174732-83.09661a11.221323 11.221323 0 0 0 5.38895-14.908976 11.221323 11.221323 0 0 0-14.9135-5.388949l-177.174732 83.101134c0.185514-0.095019 0.375552-0.17194 0.570115-0.253384-124.140408 50.048005-158.772668 37.668352-167.903567 30.030612-6.162678-5.171763-5.004348-12.239386-4.995298-12.316307a11.198699 11.198699 0 1 0-16.076355-12.280108c-112.742621 57.721941-145.537842 16.329739-145.854572 15.913464 0.226236 0.298632 0.289583 0.416275 0.484146 0.742055-1.271448-2.122097-1.502209-4.045106-0.796352-6.651348 7.054049-26.026229 90.114461-73.255329 167.410371-115.480081l508.000142-293.795044c83.467638-43.957722 186.848598-40.111704 262.972604 10.004171 52.821662 34.777051 80.680406 85.725476 76.436212 139.795964-0.24886 3.122062-0.972816 3.986284-0.981866 3.990809l0.009049-0.004525c-3.665029 2.837004-24.044399-3.782672-35.003287-7.339107-31.347308-10.171586-74.273392-24.10322-99.74308 8.20333-44.926014 57.007035-79.752837 90.544311-124.244477 119.62473a10.881968 10.881968 0 0 0-1.488635 1.162855c-1.868712 1.74202-4.099403 3.551911-6.655874 5.397999-44.604758 32.406094-34.677507 91.856481-26.700413 139.614974 5.280356 31.623316 10.275655 61.500088-2.995369 68.644633-23.238997 12.506345-48.776556 11.556153-80.390824-2.990845 0.194563 0.08597 0.380077 0.176464 0.565591 0.276008a526.420305 526.420305 0 0 0-19.560394-9.791509c-19.14412-9.207819-29.695783-14.289088-77.146594-54.722047 0.733006 0.628937 1.131182 1.036162 1.678673 1.832514a11.239422 11.239422 0 0 0-12.442999-4.606172c-64.255647 18.352292-142.085475 17.447347-169.948743-1.963731-5.845947-4.06773-8.87299-8.569833-9.271166-13.737071v-0.004525a11.203224 11.203224 0 1 0-22.352151 1.701297z" fill="#6E6E96" p-id="17155"></path><path d="M942.229135 559.002863c38.722613-31.252289 128.538443 42.926084 132.090353-2.203542 6.443211-82.02425-61.319099-157.636961-138.243982-178.238043 0 0-42.346919 13.126233-42.346919 71.422815 0 87.150765 48.500548 109.018771 48.500548 109.01877z" fill="#F0F0FF" p-id="17156"></path><path d="M949.26961 567.726537c14.375057-11.59235 42.654601-2.425254 67.590371 5.674007 23.628124 7.664887 44.021068 14.280038 57.66312 5.171763 4.488529-2.999894 10.040369-9.058503 10.967938-20.886139 7.257662-92.390399-68.789423-169.129768-146.515183-189.948037l-3.126586-0.837074-3.094913 0.959242c-2.049701 0.633462-50.242568 16.334264-50.242568 82.128318 0 93.322493 52.85786 118.22659 55.111174 119.244654l6.284846 2.837004 5.361801-4.343738z m-44.32875-117.746969c0-48.776556 33.143625-60.278412 34.559865-60.748984l-6.316519 0.149316c67.377709 18.044611 136.221429 86.843084 129.963731 166.532575-0.221712 2.832479-0.859698 3.868642-1.07236 4.017957-4.601647 3.07229-24.867899-3.502139-38.283714-7.854926-28.854184-9.366185-64.771466-21.021881-88.594154-1.791791l11.642123-1.497685c-1.615328-0.769204-41.898971-20.868041-41.898972-98.806462zM202.820884 823.780834l255.040758-122.773941a11.207749 11.207749 0 0 0-9.728163-20.20743l-255.040757 122.77394a11.207749 11.207749 0 0 0 9.728162 20.207431z" fill="#6E6E96" p-id="17157"></path><path d="M1069.143201 537.772845s41.441974 58.554491 10.827671 85.31825c-4.850507 4.239669-6.416063 7.321008-15.542437 9.45668 0 0 6.397964-4.407084 9.900103-15.103539 4.280392-13.103609 0.66061-31.06225-36.523596-46.242709 0 0-5.719255-2.022553-0.90947-14.972321 5.072219-13.623953 25.849765-28.388137 32.247729-18.456361z" fill="#F7C663" p-id="17158"></path><path d="M1059.989678 544.247729v-0.00905c0.348404 0.49772 34.88112 50.939376 12.59684 70.413801-1.126657 0.98639-2.0678 1.882286-2.90035 2.674113-2.719361 2.588144-3.452367 3.289476-7.818728 4.303016a11.207749 11.207749 0 1 1 8.909187 20.148609c0.977341-0.66966 9.651243-6.954505 14.198593-20.845417 4.592598-14.031178 5.112941-40.487257-42.939658-60.097423-0.16289-0.072396-0.330305-0.131217-0.488671-0.190039 4.180848 1.475061 4.628796 4.533776 4.63332 4.56545-0.004525-0.018099-0.108593-1.479586 1.226201-5.06317 2.674114-7.185266 12.266535-14.25289 15.488141-14.411255-0.687758 0.031673-2.330234-0.57464-2.904875-1.488635z m-33.609672 8.090212c-3.180883 8.574358-3.456891 15.755099-0.8235 21.388384 2.542897 5.456821 6.79614 7.447701 8.501962 8.054014-0.167415-0.063346-0.330305-0.122168-0.493195-0.190039 23.827212 9.719113 33.953551 20.614656 30.103008 32.369897-2.167344 6.619675-5.696631 9.415957-5.841423 9.52455-4.438757 3.058715-5.950016 8.755347-3.773622 13.673724 2.176394 4.936477 7.673937 7.524621 12.92262 6.302945 9.542649-2.23069 13.714447-5.660433 18.175828-9.900102 0.728481-0.696808 1.41624-1.357418 2.176394-2.018029 37.804093-33.048605-7.112871-97.516915-9.040404-100.236275-3.64693-5.669483-10.253031-8.673902-17.859098-7.845877-12.93167 1.389091-28.836085 14.886352-34.04857 28.876808z" fill="#6E6E96" p-id="17159"></path><path d="M957.47294 457.060766l25.677825 14.252889a11.207749 11.207749 0 0 0 10.881969-19.596592l-25.68235-14.25289a11.203224 11.203224 0 1 0-10.877444 19.596593z" fill="#6E6E96" p-id="17160"></path><path d="M451.318887 662.220934c-33.632295-11.212273-242.131712 98.648096-316.115522 130.031602-73.98381 31.392555-46.052671-19.691612-46.05267-19.691611s-64.04751 19.972145-51.215384 54.029764c12.832126 34.062144 155.944713-2.036127 155.944713-2.036127s213.698328-99.353954 254.248931-123.556718 36.817703-27.569161 3.189932-38.77691z m452.002121-273.926968c-15.175934 15.23928-41.898971 72.409205-41.898971 139.782389 0 43.197568-28.50578 57.572625-60.39153 78.146558-17.840998 11.510905-137.77341 51.681431-153.324897 73.210082-7.388879 10.221358 114.009544-30.781717 85.101064 6.284846-16.687193 56.373573 6.972604 121.271731 6.972604 121.271731 1.678674 25.175581 17.583089 46.925943-5.977164 54.776344-47.075259 15.696278-143.483616-65.015801-143.483616-65.015801s-40.356039 6.723744-80.712079 6.723744c-40.351515 0 29.813426-6.370816 63.79865-40.356039 29.505744-29.505744 26.166496-40.966878 16.551451-45.211072-38.478278-38.482803-129.669624 22.795574-221.589452 65.386829-91.919827 42.595779-110.638623 14.058327-110.638622 14.058327l-54.907562 26.433454c34.243133 44.717876 194.432041-15.492665 194.432041-15.492665l63.445721-29.759129-70.431899 41.003076c21.899678 58.663085 189.282901 15.243805 189.282901 15.243805s3.081339 10.782424 68.952314 51.369224c65.870975 40.586801 115.090954 20.424617 132.38446 3.126587 13.655626-13.655626-1.221676-103.833433-8.094736-141.271024 8.574358-44.57761 40.76779-73.382021 71.617378-87.793277 42.808441-19.999293 90.775072-104.987239 90.775071-104.987239-57.65407-53.522995-31.863127-166.93075-31.863127-166.93075z" fill="#6E6E96" opacity=".41" p-id="17161"></path><path d="M939.500725 389.239634s-83.132808 47.292446 22.981088 116.041147c71.807416 46.523242 108.729188-26.60087 29.890346-95.652728 0 0 68.060942 50.179222 68.060942 113.819506l-26.216268 38.627594s-58.283008-25.410866-95.657252-4.484004c0.013574 0.004525-99.765704-136.429566 0.941144-168.351515z" fill="#6E6E96" opacity=".15" p-id="17162"></path><path d="M836.622009 166.220368s67.567747 5.759977 24.225388 65.545195-128.07692 107.394394-60.301036 123.950369l-62.314539 17.14419s-29.25236-21.347662-7.117396-49.830817c22.134964-28.487681 127.561101-97.779349 87.892821-125.638093-39.672806-27.849694-7.063099-7.067623-7.063099-7.067623l-43.487151-9.900103 68.165012-14.203118z" fill="#6E6E96" opacity=".26" p-id="17163"></path></svg>