<?xml version="1.0" standalone="no"?><!DOCTYPE svg PUBLIC "-//W3C//DTD SVG 1.1//EN" "http://www.w3.org/Graphics/SVG/1.1/DTD/svg11.dtd"><svg t="1748575113615" class="icon" viewBox="0 0 1024 1024" version="1.1" xmlns="http://www.w3.org/2000/svg" p-id="40588" xmlns:xlink="http://www.w3.org/1999/xlink" width="200" height="200"><path d="M487.1 703.5c3.3 3.3 7.2 6 11.5 7.8 4.3 1.8 8.9 2.8 13.5 2.8s9.2-0.9 13.5-2.8c4.3-1.8 8.3-4.5 11.5-7.8l226-230.8c13.8-14.1 13.8-36.9 0-51-13.8-14.1-36.1-14.1-49.9 0L547.4 591V146.8c0-19.9-15.8-36.1-35.3-36.1-19.5 0-35.3 16.1-35.3 36.1V591L311 421.7c-13.8-14.1-36.1-14.1-49.9 0-13.8 14.1-13.8 36.9 0 51l226 230.8zM842.3 198c-19.5 0-35.3 16.1-35.3 36.1 0 19.9 15.8 36.1 35.3 36.1 26.6 0 47.2 15.2 47.2 28.2v514c0 13-20.6 28.2-47.2 28.2H181.9c-26.6 0-47.2-15.1-47.2-28.2v-514c0-13 20.6-28.2 47.2-28.2 19.5 0 35.3-16.1 35.3-36.1 0-19.9-15.8-36.1-35.3-36.1-65 0-117.9 45-117.9 100.4v514c0 55.3 52.9 100.3 117.9 100.3h660.5c65 0 117.9-45 117.9-100.3v-514c-0.1-55.4-53-100.4-118-100.4z" fill="#d4237a" p-id="40589"></path></svg>