<?xml version="1.0" standalone="no"?><!DOCTYPE svg PUBLIC "-//W3C//DTD SVG 1.1//EN" "http://www.w3.org/Graphics/SVG/1.1/DTD/svg11.dtd"><svg t="1749198997451" class="icon" viewBox="0 0 1024 1024" version="1.1" xmlns="http://www.w3.org/2000/svg" p-id="22617" xmlns:xlink="http://www.w3.org/1999/xlink" width="200" height="200"><path d="M684.105143 12.312381c42.422857 0 76.312381 30.96381 76.312381 73.386667v468.601904l2.925714 2.925715 50.712381 36.571428c17.066667 11.459048 25.35619 31.207619 28.281905 50.956191v293.546666c0 22.674286-8.533333 42.422857-22.674286 53.638096-11.215238 11.215238-30.96381 16.822857-53.638095 16.822857h-19.748572l-632.441904-160.914286c-42.179048-14.140952-70.460952-45.104762-70.460953-81.67619V190.049524c0-42.179048 36.815238-70.460952 73.386667-73.386667l564.662857-104.350476z m5.632 39.521524L122.392381 156.184381c-19.748571 0-39.497143 14.140952-39.497143 33.889524v578.803809c0 19.748571 19.748571 36.815238 39.497143 42.422857l626.834286 160.914286c19.748571 0 33.889524 0 42.179047-8.533333 5.607619-5.607619 8.533333-11.215238 8.533334-22.674286v-296.228571c0-8.533333-2.925714-14.140952-8.533334-19.748572l-50.712381-36.815238c-11.215238-8.533333-17.066667-22.674286-17.066666-36.815238v-465.67619c0-17.066667-13.897143-33.889524-33.889524-33.889524z m217.453714 33.889524c42.422857 0 73.386667 33.889524 76.312381 76.312381v635.123809c0 39.497143-33.889524 73.386667-76.312381 73.386667h-19.748571c-11.215238 0-19.748571-8.533333-19.748572-19.748572 0-11.215238 8.533333-19.748571 19.748572-19.748571h19.748571c17.066667 0 33.889524-14.140952 33.889524-33.889524V159.110095c0-16.822857-14.140952-33.889524-33.889524-33.889524h-93.135238c-11.215238 0-19.748571-8.533333-19.748571-19.748571 0-11.215238 8.533333-19.748571 19.748571-19.748571z" fill="#1296db" p-id="22618"></path><path d="M407.600762 246.637714c135.558095 0 242.834286 110.201905 242.834286 242.834286 0 135.558095-107.27619 242.834286-242.834286 242.834286-135.558095 0-242.834286-110.201905-242.834286-242.834286 0-135.558095 110.201905-242.834286 242.834286-242.834286z m0 39.497143a202.605714 202.605714 0 0 0-203.337143 203.337143c0 112.88381 90.453333 203.093333 203.337143 203.093333s203.093333-90.209524 203.093333-203.093333-90.209524-203.337143-203.093333-203.337143z" fill="#1296db" p-id="22619"></path><path d="M336.847238 353.816381c11.459048-5.607619 22.674286-5.607619 33.889524 0l160.914286 107.27619c11.459048 5.851429 17.066667 17.066667 17.066666 28.281905 0 11.215238-5.607619 22.674286-17.066666 28.281905l-160.914286 107.27619c-5.607619 2.925714-11.215238 5.607619-16.822857 5.607619-5.607619 0-11.215238-2.681905-17.066667-5.607619-11.215238-5.607619-16.822857-17.066667-16.822857-28.281904v-214.552381c0-11.215238 5.607619-22.430476 16.822857-28.281905z m22.698667 39.619048v191.878095l144.091428-95.817143-144.091428-96.060952z" fill="#1296db" p-id="22620"></path></svg>