<?xml version="1.0" standalone="no"?><!DOCTYPE svg PUBLIC "-//W3C//DTD SVG 1.1//EN" "http://www.w3.org/Graphics/SVG/1.1/DTD/svg11.dtd"><svg t="1749199090829" class="icon" viewBox="0 0 1024 1024" version="1.1" xmlns="http://www.w3.org/2000/svg" p-id="37224" xmlns:xlink="http://www.w3.org/1999/xlink" width="200" height="200"><path d="M511.33 615.26c-11.05 0-20-8.95-20-20V447.87c0-11.05 8.95-20 20-20s20 8.95 20 20v147.39c0 11.05-8.95 20-20 20z" fill="#1296db" p-id="37225"></path><path d="M788.7 393.07c0-80.87-66.32-158.98-160.02-160.11C554 232.96 511.33 338 511.33 338s-42.67-105.04-117.35-105.04c-96.02 0-160.02 79.24-160.02 160.11 0 133.46 122.22-23.53 240.71 45.09a71.336 71.336 0 0 0 71.51 0c118.49-68.62 242.53 88.37 242.53-45.09z" fill="#1296db" p-id="37226"></path><path d="M442.45 794.97c-11.05 0-20-8.95-20-20v-18.64c0-23.4-4.91-31.15-8.61-34.94-6-6.16-17.57-10.22-32.23-15.36-13.51-4.74-30.33-10.64-49.01-20.42l-2.51-1.32C170.43 600.65 158.51 487.9 158.08 483.14l39.84-3.59v-0.15c0.01 0.24 2.73 24.25 22.4 56.83 18.28 30.29 55.39 74.42 128.33 112.63l2.51 1.32c16.11 8.43 30.76 13.58 43.69 18.11 18.83 6.6 35.09 12.31 47.64 25.19 13.8 14.17 19.95 33.55 19.95 62.85v18.64c0 11.05-8.95 20-20 20zM588.29 794.97c-11.05 0-20-8.95-20-20v-18.64c0-29.3 6.15-48.69 19.95-62.85 12.55-12.89 28.81-18.59 47.64-25.19 12.93-4.53 27.59-9.67 43.69-18.11l2.51-1.32c72.94-38.21 110.05-82.34 128.33-112.63 19.66-32.58 22.39-56.59 22.41-56.83v0.15l39.82 3.59c-0.43 4.76-12.35 117.52-172.01 201.15l-2.52 1.32c-18.68 9.78-35.5 15.68-49.01 20.42-14.65 5.14-26.23 9.2-32.23 15.36-3.69 3.79-8.61 11.54-8.61 34.94v18.64c0 11.05-8.95 20-20 20z" fill="#1296db" p-id="37227"></path><path d="M687.59 316.69c-5.12 0-10.24-1.95-14.14-5.86-5.78-5.79-13.48-8.97-21.66-8.97s-15.87 3.19-21.66 8.97c-7.81 7.81-20.47 7.81-28.28 0s-7.81-20.47 0-28.29c27.54-27.54 72.35-27.54 99.88 0 7.81 7.81 7.81 20.47 0 28.29a19.92 19.92 0 0 1-14.14 5.86z" fill="#1296db" p-id="37228"></path></svg>