<?xml version="1.0" standalone="no"?><!DOCTYPE svg PUBLIC "-//W3C//DTD SVG 1.1//EN" "http://www.w3.org/Graphics/SVG/1.1/DTD/svg11.dtd"><svg t="1748957047412" class="icon" viewBox="0 0 1024 1024" version="1.1" xmlns="http://www.w3.org/2000/svg" p-id="24665" xmlns:xlink="http://www.w3.org/1999/xlink" width="200" height="200"><path d="M865.792 243.492571h-26.331429l-26.148571-126.500571-0.365714-1.316571C793.088 35.84 715.081143-13.531429 636.489143 3.291429L293.449143 66.816a142.043429 142.043429 0 0 0-94.427429 56.576 145.92 145.92 0 0 0-27.428571 107.556571l1.097143 6.619429 1.243428 6.034286h-15.835428C70.875429 243.602286 0 315.538286 0 404.114286v459.483428C0 952.064 70.875429 1024 158.098286 1024h707.803428C953.124571 1024 1024 952.064 1024 863.561143V404.077714c-0.109714-88.502857-70.985143-160.585143-158.208-160.585143z m-562.322286-113.371428l345.124572-63.890286c45.824-10.057143 91.062857 18.578286 102.948571 64.731429l21.211429 102.692571H236.544l-2.304-11.446857a81.334857 81.334857 0 0 1 69.229714-92.086857z m562.322286 829.732571H157.988571c-52.370286 0-94.902857-43.154286-94.902857-96.292571V404.077714c0-53.138286 42.532571-96.329143 94.902857-96.329143h707.803429c52.333714 0 94.902857 43.154286 94.902857 96.329143v22.345143h-274.907428a180.736 180.736 0 0 0-127.195429 59.757714 186.258286 186.258286 0 0 0-48.274286 133.485715c3.84 95.963429 80.896 174.08 176.749715 178.102857h273.627428v65.792c0 53.101714-42.569143 96.292571-94.902857 96.292571z m94.793143-469.284571v242.944h-272.237714c-61.805714-2.633143-112.274286-53.76-114.834286-116.553143a121.965714 121.965714 0 0 1 31.597714-87.332571 117.833143 117.833143 0 0 1 82.651429-39.058286h272.822857z" fill="#1296db" p-id="24666"></path><path d="M713.142857 658.285714c30.244571 0 54.857143-24.612571 54.857143-54.857143s-24.612571-54.857143-54.857143-54.857142-54.857143 24.612571-54.857143 54.857142 24.502857 54.857143 54.857143 54.857143z" fill="#1296db" p-id="24667"></path></svg>