<?xml version="1.0" standalone="no"?><!DOCTYPE svg PUBLIC "-//W3C//DTD SVG 1.1//EN" "http://www.w3.org/Graphics/SVG/1.1/DTD/svg11.dtd"><svg t="1748957112399" class="icon" viewBox="0 0 1063 1024" version="1.1" xmlns="http://www.w3.org/2000/svg" p-id="29330" xmlns:xlink="http://www.w3.org/1999/xlink" width="207.6171875" height="200"><path d="M700.337231 239.104h116.105846a152.379077 152.379077 0 0 1 152.418461 152.300308v440.910769A152.379077 152.379077 0 0 1 816.443077 984.615385H254.818462a152.379077 152.379077 0 0 1-152.418462-152.300308V391.404308a152.379077 152.379077 0 0 1 152.418462-152.300308h111.852307L306.688 125.833846a32.059077 32.059077 0 0 1 56.713846-29.971692l75.894154 143.241846h188.455385l75.854769-143.241846a32.098462 32.098462 0 0 1 56.713846 29.971692l-59.982769 113.270154zM254.818462 303.261538a88.221538 88.221538 0 0 0-88.221539 88.221539v440.871385a88.142769 88.142769 0 0 0 88.221539 88.182153h561.624615a88.300308 88.300308 0 0 0 88.221538-88.221538V391.443692A88.221538 88.221538 0 0 0 816.443077 303.261538H254.818462z" fill="#1296db" p-id="29331"></path><path d="M378.092308 483.131077v254.660923c0 17.959385 9.767385 34.579692 25.560615 43.441231a50.806154 50.806154 0 0 0 50.766769-0.669539l214.252308-127.291077c15.202462-9.058462 24.497231-25.284923 24.497231-42.811077 0-17.526154-9.294769-33.792-24.497231-42.811076l-214.252308-127.291077a50.806154 50.806154 0 0 0-50.766769-0.669539c-15.793231 8.861538-25.6 25.481846-25.560615 43.441231z m242.057846 127.330461l-180.027077 106.968616v-213.937231l180.027077 106.968615z" fill="#1296db" p-id="29332"></path></svg>