<?xml version="1.0" standalone="no"?><!DOCTYPE svg PUBLIC "-//W3C//DTD SVG 1.1//EN" "http://www.w3.org/Graphics/SVG/1.1/DTD/svg11.dtd"><svg t="1748956514115" class="icon" viewBox="0 0 1024 1024" version="1.1" xmlns="http://www.w3.org/2000/svg" p-id="13495" xmlns:xlink="http://www.w3.org/1999/xlink" width="200" height="200"><path d="M240.853333 864v-412.629333h-64v476.586666h670.293334v-395.776h-64v331.776z" fill="#f4ea2a" p-id="13496"></path><path d="M896 208.853333v197.589334a85.333333 85.333333 0 0 1-85.333333 85.333333H128V294.186667a85.333333 85.333333 0 0 1 85.333333-85.333334h682.666667z m-64 64H213.333333a21.333333 21.333333 0 0 0-21.333333 21.333334v133.589333H810.666667a21.333333 21.333333 0 0 0 21.333333-21.333333V272.853333z" fill="#f4ea2a" p-id="13497"></path><path d="M352.810667 154.581333L388.266667 101.333333l103.509333 68.992 103.509333-68.992 35.498667 53.248-139.008 92.672z" fill="#f4ea2a" p-id="13498"></path><path d="M621.482667 451.370667V330.069333h64v121.301334z" fill="#f4ea2a" p-id="13499"></path></svg>